<svg xmlns="http://www.w3.org/2000/svg" viewBox="0 0 64 64" width="55px" height="55px" clip-rule="evenodd" baseProfile="basic">
    <path fill="#155d92" d="M43.462,52H20.538c-2.28,0-4.424-0.888-6.037-2.5C12.889,47.887,12,45.743,12,43.461V20.539 c0-2.281,0.889-4.426,2.501-6.038c1.613-1.612,3.757-2.5,6.037-2.5h22.924c2.28,0,4.424,0.888,6.037,2.5 C51.111,16.113,52,18.257,52,20.539v22.923c0,2.281-0.889,4.426-2.501,6.038C47.886,51.112,45.742,52,43.462,52z M20.538,16 c-1.212,0-2.352,0.472-3.209,1.33C16.472,18.186,16,19.326,16,20.539v22.923c0,1.213,0.472,2.353,1.329,3.209 c0.857,0.857,1.997,1.33,3.209,1.33h22.924c1.212,0,2.352-0.472,3.209-1.33C47.528,45.814,48,44.674,48,43.461V20.539 c0-1.213-0.472-2.353-1.329-3.209C45.813,16.472,44.674,16,43.462,16H20.538z"/>
    <path d="M43.487,24.999h-6c-0.553,0-1-0.448-1-1s0.447-1,1-1h6c0.553,0,1,0.448,1,1S44.04,24.999,43.487,24.999z"/>
    <path fill="#155d92" d="M28.793,31.345c0.951,0.326,2.695,1.252,2.695,4.081	c0,4.384-4.756,4.573-5.39,4.574h-7.61V23.999h7.293c0.792,0,4.707-0.134,4.707,4C30.488,30.197,29.426,31.019,28.793,31.345z M22.488,26.999v3h2.619c0.357,0,1.547-0.226,1.547-1.565c0-1.34-1.548-1.435-1.785-1.435H22.488z M25.418,36.981	c0.254,0,2.037-0.098,2.037-1.916c0-1.82-1.401-2.065-2.037-2.065h-2.93v3.981H25.418z" clip-rule="evenodd"/>
    <path fill="#155d92" d="M43.141,36h3.182c-0.563,1.868-2.591,3.999-5.667,3.999	c-2.028,0-6.169-1.127-6.169-6.5c0-5.807,4.479-6.5,6-6.5c5.375,0,6.125,4.5,6,8c0,0,0,0.001,0,0.001h-2.68c0,0,0-0.001,0-0.001	h-5.321c0,0,0.512,1.982,2.512,1.982C41.99,36.981,42.688,36.493,43.141,36z M40.573,29.6c-1.326-0.023-2.823,1.15-2.788,2.4h5.408	c-0.085-0.775-0.338-1.394-0.761-1.781C42.01,29.832,41.498,29.616,40.573,29.6z" clip-rule="evenodd"/>
</svg>