<svg width="43" height="41" viewBox="0 0 43 41" fill="none" xmlns="http://www.w3.org/2000/svg">
<path d="M0.40326 21.86C0.180546 21.86 2.73623e-08 21.6794 1.76272e-08 21.4567V21.4567C7.89201e-09 21.234 0.180546 21.0535 0.403261 21.0535L14.7174 21.0535C14.9401 21.0535 15.1207 21.234 15.1207 21.4567V21.4567C15.1207 21.6794 14.9401 21.86 14.7174 21.86L0.40326 21.86Z" fill="#155D92"/>
<path d="M29.3255 21.4603C22.4693 21.4603 21.8644 25.6945 21.8644 28.719C21.8644 21.8636 18.2347 21.4603 14 21.4603C21.8644 21.4603 21.8644 16.8228 21.8644 14C21.8644 20.4522 25.6958 21.4603 29.3255 21.4603Z" fill="#155D92" stroke="#155D92" stroke-width="0.8" stroke-linejoin="round"/>
<path d="M6.93715 16.5777C7.95144 12.7923 10.2829 9.49291 13.5123 7.2728C16.7417 5.05269 20.6571 4.05748 24.5547 4.46611C28.4522 4.87475 32.0762 6.66042 34.7749 9.50205C37.4736 12.3437 39.07 16.0549 39.2771 19.9683C39.4842 23.8817 38.2884 27.7407 35.9047 30.8513C33.5211 33.9619 30.1059 36.1201 26.2732 36.9379C22.4406 37.7556 18.4419 37.1793 14.9962 35.3124C11.5505 33.4456 8.88387 30.4107 7.4757 26.7536" stroke="#155D92" stroke-width="1.5" stroke-linecap="round"/>
</svg>
