<svg width="44" height="41" viewBox="0 0 44 41" fill="none" xmlns="http://www.w3.org/2000/svg">
<path fill-rule="evenodd" clip-rule="evenodd" d="M-3.34792e-07 21.2407C-3.25057e-07 21.4635 0.180545 21.644 0.40326 21.644L14.7174 21.644C14.7452 21.644 14.7724 21.6412 14.7986 21.6358C14.8199 21.6394 14.8419 21.6412 14.8643 21.6412C16.9987 21.6412 18.8414 21.7518 20.1626 22.6326C21.4401 23.4842 22.3287 25.1356 22.3287 28.4999C22.3287 28.7208 22.5078 28.8999 22.7287 28.8999C22.9496 28.8999 23.1287 28.7208 23.1287 28.4999C23.1287 26.9983 23.2836 25.2942 24.2156 23.9662C25.1267 22.6679 26.8479 21.6412 30.1898 21.6412C30.4107 21.6412 30.5898 21.4621 30.5898 21.2412C30.5898 21.0203 30.4107 20.8412 30.1898 20.8412C28.3963 20.8412 26.642 20.5884 25.3381 19.6106C24.0586 18.6511 23.129 16.9264 23.1287 13.7824L23.1287 13.7809C23.1287 13.56 22.9496 13.3809 22.7287 13.3809C22.5078 13.3809 22.3287 13.56 22.3287 13.7809C22.3287 15.2121 22.3186 16.9543 21.4103 18.3516C20.5279 19.709 18.7192 20.8412 14.8643 20.8412C14.8428 20.8412 14.8217 20.8429 14.8011 20.8462C14.7741 20.8405 14.7461 20.8375 14.7174 20.8375L0.40326 20.8375C0.180546 20.8375 -3.44528e-07 21.018 -3.34792e-07 21.2407ZM20.6064 21.9669C20.0299 21.5826 19.3793 21.3285 18.6815 21.1609C20.3448 20.6643 21.4114 19.8177 22.081 18.7876C22.4088 18.2834 22.6341 17.7445 22.7888 17.1995C23.2226 18.5784 23.9422 19.5638 24.8581 20.2506C25.4805 20.7173 26.1795 21.035 26.9142 21.2475C25.3292 21.7017 24.2627 22.5064 23.5608 23.5066C23.1936 24.0298 22.9338 24.5966 22.7508 25.1766C22.339 23.6527 21.6033 22.6315 20.6064 21.9669Z" fill="#E4E8F2"/>
<path d="M7.93715 16.5777C8.95144 12.7923 11.2829 9.49291 14.5123 7.2728C17.7417 5.05269 21.6571 4.05748 25.5547 4.46611C29.4522 4.87475 33.0762 6.66042 35.7749 9.50205C38.4736 12.3437 40.07 16.0549 40.2771 19.9683C40.4842 23.8817 39.2884 27.7407 36.9047 30.8513C34.5211 33.9619 31.1059 36.1201 27.2732 36.9379C23.4406 37.7556 19.4419 37.1793 15.9962 35.3124C12.5505 33.4456 9.88387 30.4107 8.4757 26.7536" stroke="#E4E8F2" stroke-width="1.5" stroke-linecap="round"/>
</svg>
