<svg width="122" height="239" viewBox="0 0 122 239" fill="none"
    xmlns="http://www.w3.org/2000/svg">
    <path fill-rule="evenodd" clip-rule="evenodd" d="M63.7714 0H57.48V115.495C57.4586 115.644 57.4475 115.796 57.4475 115.951C57.4475 132.603 56.583 146.96 49.7231 157.251C43.0948 167.195 30.2351 174.124 4 174.124C2.24646 174.124 0.824951 175.545 0.824951 177.299C0.824951 179.052 2.24646 180.474 4 180.474C15.7118 180.474 28.9901 181.682 39.3346 188.942C49.4429 196.037 57.4475 209.443 57.4475 235.5C57.4475 237.254 58.8689 238.675 60.6224 238.675C62.376 238.675 63.7975 237.254 63.7975 235.5C63.7975 221.513 65.7693 207.843 73.3861 197.687C80.8574 187.724 94.292 180.476 118.806 180.474H118.818C120.571 180.474 121.993 179.052 121.993 177.299C121.993 175.545 120.571 174.124 118.818 174.124C107.65 174.124 94.0771 174.044 83.1931 166.968C72.6257 160.099 63.7975 146.011 63.7975 115.951C63.7975 115.812 63.7886 115.676 63.7714 115.542V0ZM55.0068 160.774C57.9725 156.325 59.9453 151.311 61.2546 145.937C65.139 158.811 71.7239 167.086 79.7322 172.292C83.6167 174.818 87.7642 176.563 91.9609 177.771C81.286 181.162 73.6431 186.76 68.3059 193.877C64.6991 198.686 62.2323 204.081 60.5737 209.752C57.0187 197.478 50.7582 189.202 42.9824 183.745C38.9491 180.914 34.5847 178.901 30.1177 177.475C41.9158 174.251 49.8398 168.525 55.0068 160.774Z" fill="#E4E8F2"/>
</svg>
